<svg width="384" height="80" viewBox="0 0 384 80" fill="none" xmlns="http://www.w3.org/2000/svg">
<rect y="16" width="4" height="56" fill="#697586"/>
<rect x="8" y="8" width="368" height="4" fill="#697586"/>
<rect width="376" height="64" transform="translate(4 12)" fill="#697586"/>
<rect x="8" y="76" width="368" height="4" fill="#697586"/>
<rect x="380" y="16" width="4" height="56" fill="#697586"/>
<rect x="4" y="16" width="4" height="56" fill="black"/>
<rect x="8" y="12" width="368" height="4" fill="black"/>
<rect width="368" height="56" transform="translate(8 16)" fill="#6941C6"/>
<rect x="8" y="68" width="4" height="4" fill="black"/>
<rect x="372" y="68" width="4" height="4" fill="black"/>
<rect x="8" y="72" width="368" height="4" fill="black"/>
<rect x="376" y="16" width="4" height="56" fill="black"/>
<rect x="8" y="4" width="4" height="56" fill="black"/>
<rect x="12" width="360" height="4" fill="black"/>
<rect width="360" height="56" transform="translate(12 4)" fill="#7F56D9"/>
<path d="M42 41V38H39V35H36V26H39V23H42V20H54V23H57V26H51V23H45V26H42V35H45V38H51V35H57V38H54V41H42ZM72 29H75V32H78V35H81V41H75V35H66V41H60V26H66V32H72V29ZM81 26V29H75V26H81ZM87 41V38H84V29H87V26H102V29H105V38H102V41H87ZM90 38H99V29H90V38ZM129 29V38H126V41H114V44H108V26H114V29H117V32H114V38H123V29H117V26H126V29H129ZM135 41V38H132V29H135V26H150V29H153V35H138V38H150V41H135ZM138 32H147V29H138V32ZM159 41V38H156V29H159V26H174V29H177V35H162V38H174V41H159ZM162 32H171V29H162V32ZM216 29H219V32H222V35H225V41H219V35H210V41H204V26H210V32H216V29ZM225 26V29H219V26H225ZM231 41V38H228V29H231V26H246V29H249V38H246V41H231ZM234 38H243V29H234V38ZM273 38H276V44H270V41H258V44H252V38H255V35H258V26H273V38ZM261 38H267V29H261V38ZM282 35H285V38H282V41H276V26H282V35ZM297 26V41H291V32H288V29H291V26H297ZM285 32H288V35H285V32ZM309 41V29H303V26H321V29H315V41H309ZM324 41V26H330V32H342V35H345V38H342V41H324ZM330 38H339V35H330V38Z" fill="white"/>
<rect x="12" y="60" width="360" height="4" fill="black"/>
<rect x="372" y="4" width="4" height="56" fill="black"/>
</svg>
