<svg width="384" height="80" viewBox="0 0 384 80" fill="none" xmlns="http://www.w3.org/2000/svg">
<rect y="16" width="4" height="56" fill="#697586"/>
<rect x="8" y="8" width="368" height="4" fill="#697586"/>
<rect width="376" height="64" transform="translate(4 12)" fill="#697586"/>
<rect x="8" y="76" width="368" height="4" fill="#697586"/>
<rect x="380" y="16" width="4" height="56" fill="#697586"/>
<rect x="4" y="16" width="4" height="56" fill="black"/>
<rect x="8" y="12" width="368" height="4" fill="black"/>
<rect width="368" height="56" transform="translate(8 16)" fill="#7F56D9"/>
<rect x="8" y="68" width="4" height="4" fill="black"/>
<rect x="372" y="68" width="4" height="4" fill="black"/>
<rect x="8" y="72" width="368" height="4" fill="black"/>
<rect x="376" y="16" width="4" height="56" fill="black"/>
<rect x="8" y="8" width="4" height="56" fill="black"/>
<rect x="12" y="4" width="360" height="4" fill="black"/>
<rect width="360" height="56" transform="translate(12 8)" fill="#9E77ED"/>
<path d="M42 45V42H39V39H36V30H39V27H42V24H54V27H57V30H51V27H45V30H42V39H45V42H51V39H57V42H54V45H42ZM72 33H75V36H78V39H81V45H75V39H66V45H60V30H66V36H72V33ZM81 30V33H75V30H81ZM87 45V42H84V33H87V30H102V33H105V42H102V45H87ZM90 42H99V33H90V42ZM129 33V42H126V45H114V48H108V30H114V33H117V36H114V42H123V33H117V30H126V33H129ZM135 45V42H132V33H135V30H150V33H153V39H138V42H150V45H135ZM138 36H147V33H138V36ZM159 45V42H156V33H159V30H174V33H177V39H162V42H174V45H159ZM162 36H171V33H162V36ZM216 33H219V36H222V39H225V45H219V39H210V45H204V30H210V36H216V33ZM225 30V33H219V30H225ZM231 45V42H228V33H231V30H246V33H249V42H246V45H231ZM234 42H243V33H234V42ZM273 42H276V48H270V45H258V48H252V42H255V39H258V30H273V42ZM261 42H267V33H261V42ZM282 39H285V42H282V45H276V30H282V39ZM297 30V45H291V36H288V33H291V30H297ZM285 36H288V39H285V36ZM309 45V33H303V30H321V33H315V45H309ZM324 45V30H330V36H342V39H345V42H342V45H324ZM330 42H339V39H330V42Z" fill="white"/>
<rect x="12" y="64" width="360" height="4" fill="black"/>
<rect x="372" y="8" width="4" height="56" fill="black"/>
</svg>
