<svg width="232" height="100" viewBox="0 0 232 100" fill="none" xmlns="http://www.w3.org/2000/svg">
<path d="M86 48V44H78V48H62V32H66V24H70V8H98V32H102V48H86Z" fill="black"/>
<path d="M102 44V40H98V28H102V16H130V20H134V44H102Z" fill="black"/>
<path d="M138 44V28H130V16H162V28H154V44H138Z" fill="black"/>
<path d="M158 44V40H154V28H158V16H186V20H190V44H158Z" fill="black"/>
<path d="M66 42V34H70V26H74V10H94V34H98V42H90V38H74V42H66ZM78 34H86V14H78V34Z" fill="#9E77ED"/>
<path d="M106 38V34H102V30H106V26H122V22H106V18H126V22H130V38H106ZM110 34H122V30H110V34Z" fill="#9E77ED"/>
<path d="M142 38V22H134V18H158V22H150V38H142Z" fill="#9E77ED"/>
<path d="M162 38V34H158V30H162V26H178V22H162V18H182V22H186V38H162ZM166 34H178V30H166V34Z" fill="#9E77ED"/>
<path d="M32 90V86H28V82H24V74H20V50H24V42H28V38H32V34H60V38H64V42H68V50H72V74H76V86H72V90H32Z" fill="black"/>
<path d="M80 90V86H76V66H72V54H76V50H88V54H92V50H104V54H108V74H116V86H112V90H80Z" fill="black"/>
<path d="M124 90V86H112V54H116V50H136V54H140V58H144V70H136V74H144V86H140V90H124Z" fill="black"/>
<path d="M160 90V86H156V90H140V78H144V54H148V50H164V42H176V46H180V62H176V86H172V90H160Z" fill="black"/>
<path d="M184 90V86H180V62H176V50H180V42H184V38H196V50H204V62H196V74H204V86H200V90H184Z" fill="black"/>
<path d="M64 84H60V80H56V84H36V80H32V76H28V68H24V52H28V44H32V40H36V36H56V40H60V44H64V52H68V68H64V80H68V84H64ZM36 68V52H40V44H36V48H32V56H28V64H32V68H36ZM44 76H48V48H44V60H40V76H44ZM56 76V72H60V64H64V56H60V52H56V44H52V76H56ZM68 80V76H72V80H68Z" fill="white"/>
<path d="M104 84H100V80H92V84H84V80H80V60H76V56H80V52H84V56H88V80H92V76H96V60H92V56H96V52H100V56H104V80H108V84H104ZM108 80V76H112V80H108Z" fill="white"/>
<path d="M132 84H128V80H124V76H120V72H116V56H120V52H132V56H136V60H140V64H132V68H128V64H132V60H128V56H124V68H128V76H132V80H136V84H132ZM116 80V76H120V80H116ZM136 80V76H140V80H136Z" fill="white"/>
<path d="M164 84V80H152V84H144V80H148V76H152V68H148V56H152V52H168V56H172V64H168V60H160V56H156V68H160V64H168V68H172V80H168V84H164ZM160 76H164V68H160V72H156V76H160ZM172 48H168V44H172V48ZM172 56V48H176V56H172Z" fill="white"/>
<path d="M192 84H188V80H184V56H180V52H184V44H188V40H192V52H200V56H192V80H196V84H192ZM196 80V76H200V80H196Z" fill="white"/>
<path d="M12.8 53.2H9.6V50H6.4V53.2H3.2V56.4H0V59.6H3.2V62.8H6.4V66H9.6V62.8H12.8V59.6H16V56.4H12.8V53.2Z" fill="black"/>
<path d="M9.6002 56.4V53.2H6.4002V56.4H3.2002V59.6H6.4002V62.8H9.6002V59.6H12.8002V56.4H9.6002Z" fill="#22CCEE"/>
<path d="M9.6001 56.4H12.8001V59.6H9.6001V56.4Z" fill="#088AB2"/>
<path d="M9.5999 59.6H6.3999V62.8H9.5999V59.6Z" fill="#088AB2"/>
<path d="M9.5999 53.2H6.3999V56.4H9.5999V53.2Z" fill="#088AB2"/>
<path d="M184.8 3.2H181.6V0H178.4V3.2H175.2V6.4H172V9.6H175.2V12.8H178.4V16H181.6V12.8H184.8V9.6H188V6.4H184.8V3.2Z" fill="black"/>
<path d="M181.6 6.4V3.2H178.4V6.4H175.2V9.6H178.4V12.8H181.6V9.6H184.8V6.4H181.6Z" fill="#FAC515"/>
<path d="M181.6 6.39999H184.8V9.59999H181.6V6.39999Z" fill="#CA8504"/>
<path d="M181.6 9.60001H178.4V12.8H181.6V9.60001Z" fill="#CA8504"/>
<path d="M181.6 3.2H178.4V6.4H181.6V3.2Z" fill="#CA8504"/>
<path d="M35.3 87.2H32.1V84H28.9V87.2H25.7V90.4H22.5V93.6H25.7V96.8H28.9V100H32.1V96.8H35.3V93.6H38.5V90.4H35.3V87.2Z" fill="black"/>
<path d="M32.1002 90.4V87.2H28.9002V90.4H25.7002V93.6H28.9002V96.8H32.1002V93.6H35.3002V90.4H32.1002Z" fill="#85E13A"/>
<path d="M32.1001 90.4H35.3001V93.6H32.1001V90.4Z" fill="#4CA30D"/>
<path d="M32.0999 93.6H28.8999V96.8H32.0999V93.6Z" fill="#4CA30D"/>
<path d="M32.0999 87.2H28.8999V90.4H32.0999V87.2Z" fill="#4CA30D"/>
<path d="M212.8 31.2H209.6V28H206.4V31.2H203.2V34.4H200V37.6H203.2V40.8H206.4V44H209.6V40.8H212.8V37.6H216V34.4H212.8V31.2Z" fill="black"/>
<path d="M209.6 34.4V31.2H206.4V34.4H203.2V37.6H206.4V40.8H209.6V37.6H212.8V34.4H209.6Z" fill="#FD6F8E"/>
<path d="M209.6 34.4H212.8V37.6H209.6V34.4Z" fill="#E31B54"/>
<path d="M209.6 37.6H206.4V40.8H209.6V37.6Z" fill="#E31B54"/>
<path d="M209.6 31.2H206.4V34.4H209.6V31.2Z" fill="#E31B54"/>
<path d="M114.8 48.2H111.6V45H108.4V48.2H105.2V51.4H102V54.6H105.2V57.8H108.4V61H111.6V57.8H114.8V54.6H118V51.4H114.8V48.2Z" fill="black"/>
<path d="M111.6 51.4V48.2H108.4V51.4H105.2V54.6H108.4V57.8H111.6V54.6H114.8V51.4H111.6Z" fill="#2ED3B7"/>
<path d="M111.6 51.4H114.8V54.6H111.6V51.4Z" fill="#0E9384"/>
<path d="M111.6 54.6H108.4V57.8H111.6V54.6Z" fill="#0E9384"/>
<path d="M111.6 48.2H108.4V51.4H111.6V48.2Z" fill="#0E9384"/>
<path d="M161.8 85.7H158.6V82.5H155.4V85.7H152.2V88.9H149V92.1H152.2V95.3H155.4V98.5H158.6V95.3H161.8V92.1H165V88.9H161.8V85.7Z" fill="black"/>
<path d="M158.6 88.9V85.7H155.4V88.9H152.2V92.1H155.4V95.3H158.6V92.1H161.8V88.9H158.6Z" fill="#B692F6"/>
<path d="M158.6 88.9H161.8V92.1H158.6V88.9Z" fill="#7F56D9"/>
<path d="M158.6 92.1H155.4V95.3H158.6V92.1Z" fill="#7F56D9"/>
<path d="M158.6 85.7H155.4V88.9H158.6V85.7Z" fill="#7F56D9"/>
</svg>
