<svg width="184" height="184" viewBox="0 0 184 184" fill="none" xmlns="http://www.w3.org/2000/svg">
<g id="Platform">
<g clip-path="url(#clip0_8_156203)">
<g id="Group 109">
<g id="Group">
<path id="Vector" d="M5.75 86.25H0V92H5.75V86.25Z" fill="#9AA4B2"/>
<path id="Vector_2" d="M5.75 120.75H0V126.5V132.25H5.75H11.5V126.5H5.75V120.75Z" fill="#9AA4B2"/>
<path id="Vector_3" d="M5.75 57.5H11.5V63.25H17.25H23V57.5H28.75V51.75H23H17.25H11.5V46V40.25H17.25V34.5H23V28.75H17.25V23H11.5V17.25H5.75H0V23V28.75H5.75H11.5V34.5H5.75H0V40.25V46V51.75H5.75V57.5Z" fill="#9AA4B2"/>
<path id="Vector_4" d="M23 103.5V109.25H28.75H34.5H40.25H46V103.5V97.75H40.25V103.5H34.5H28.75V97.75H23V92H28.75V86.25H34.5V80.5V74.75V69V63.25H28.75V69H23V74.75H17.25V80.5V86.25H11.5V92V97.75H17.25V103.5H23Z" fill="#9AA4B2"/>
<path id="Vector_5" d="M34.5 23H40.25V17.25H34.5V11.5H40.25V5.75H46V0H40.25H34.5V5.75H28.75V11.5V17.25H23V23H28.75H34.5Z" fill="#9AA4B2"/>
<path id="Vector_6" d="M46 28.75V34.5H51.75H57.5V28.75H51.75V23H46H40.25V28.75H46Z" fill="#9AA4B2"/>
<path id="Vector_7" d="M40.25 178.25H34.5V184H40.25H46H51.75V178.25H46H40.25Z" fill="#9AA4B2"/>
<path id="Vector_8" d="M51.75 40.25H46V46V51.75H40.25V57.5V63.25H46V69H51.75V74.75H57.5H63.25H69V69H74.75V63.25H69H63.25H57.5V57.5H51.75V51.75H57.5V46H63.25H69V40.25H63.25H57.5H51.75Z" fill="#9AA4B2"/>
<path id="Vector_9" d="M63.25 143.75H69V138H63.25H57.5H51.75H46V132.25H40.25H34.5V126.5V120.75H40.25H46H51.75V115H46H40.25H34.5H28.75H23V120.75V126.5V132.25V138H28.75H34.5V143.75H40.25H46H51.75H57.5H63.25Z" fill="#9AA4B2"/>
<path id="Vector_10" d="M69 172.5H63.25V166.75V161H69V155.25H63.25H57.5V161V166.75V172.5V178.25H63.25V184H69H74.75V178.25H69V172.5Z" fill="#9AA4B2"/>
<path id="Vector_11" d="M69 17.25H74.75V11.5V5.75H80.5H86.25H92V0H86.25H80.5H74.75H69H63.25V5.75V11.5H69V17.25Z" fill="#9AA4B2"/>
<path id="Vector_12" d="M86.25 109.25V103.5H80.5H74.75V97.75H69H63.25V92H69V86.25V80.5H63.25V86.25H57.5V92V97.75V103.5H51.75V109.25H57.5H63.25H69H74.75H80.5H86.25Z" fill="#9AA4B2"/>
<path id="Vector_13" d="M92 46V51.75V57.5H86.25V63.25H80.5V69V74.75H86.25V80.5H92V86.25H97.75V80.5V74.75V69V63.25V57.5V51.75V46H103.5V40.25H97.75H92V46Z" fill="#9AA4B2"/>
<path id="Vector_14" d="M97.75 97.75V103.5V109.25V115H103.5H109.25V109.25H103.5V103.5V97.75V92H109.25V86.25H103.5H97.75V92V97.75Z" fill="#9AA4B2"/>
<path id="Vector_15" d="M109.25 23H115H120.75H126.5H132.25H138V17.25H143.75V11.5H138H132.25H126.5H120.75V5.75H115V0H109.25H103.5V5.75V11.5V17.25H109.25V23Z" fill="#9AA4B2"/>
<path id="Vector_16" d="M109.25 155.25H103.5V149.5H97.75V143.75H92V138V132.25V126.5H86.25V132.25V138H80.5V143.75V149.5H86.25V155.25V161H92V166.75H97.75H103.5V161H109.25H115H120.75V155.25H115H109.25Z" fill="#9AA4B2"/>
<path id="Vector_17" d="M109.25 172.5H103.5V178.25H97.75V184H103.5H109.25H115V178.25V172.5V166.75H109.25V172.5Z" fill="#9AA4B2"/>
<path id="Vector_18" d="M126.5 120.75H132.25H138H143.75V115H138H132.25V109.25H138V103.5H132.25V97.75V92H126.5H120.75V97.75V103.5H115V109.25V115H120.75V120.75H126.5Z" fill="#9AA4B2"/>
<path id="Vector_19" d="M126.5 161V166.75H132.25H138V161H132.25H126.5Z" fill="#9AA4B2"/>
<path id="Vector_20" d="M138 28.75V34.5H132.25V40.25V46V51.75H138V57.5H143.75H149.5H155.25H161V51.75H155.25H149.5V46V40.25H155.25V34.5H161H166.75H172.5V28.75H166.75V23H161V17.25H155.25V23H149.5V28.75H143.75H138Z" fill="#9AA4B2"/>
<path id="Vector_21" d="M143.75 86.25V80.5V74.75H138H132.25H126.5H120.75H115V69H120.75V63.25H126.5H132.25V57.5H126.5H120.75H115V63.25H109.25V69H103.5V74.75V80.5H109.25H115H120.75V86.25H126.5V80.5H132.25H138V86.25H143.75Z" fill="#9AA4B2"/>
<path id="Vector_22" d="M149.5 109.25H143.75V115H149.5V109.25Z" fill="#9AA4B2"/>
<path id="Vector_23" d="M166.75 161H161V155.25H155.25H149.5V149.5H143.75V143.75V138H149.5V132.25H155.25V126.5H149.5H143.75H138V132.25H132.25V138V143.75V149.5V155.25H138H143.75V161H149.5H155.25V166.75H161H166.75V161Z" fill="#9AA4B2"/>
<path id="Vector_24" d="M172.5 86.25V80.5H166.75V74.75V69H172.5V63.25V57.5H166.75V63.25H161V69H155.25V74.75V80.5V86.25H161V92H166.75H172.5H178.25H184V86.25H178.25H172.5Z" fill="#9AA4B2"/>
<path id="Vector_25" d="M172.5 120.75V115H166.75V109.25V103.5V97.75H161V103.5V109.25H155.25V115V120.75H161V126.5V132.25H166.75H172.5H178.25H184V126.5V120.75H178.25H172.5Z" fill="#9AA4B2"/>
<path id="Vector_26" d="M172.5 178.25H166.75V184H172.5H178.25V178.25V172.5H172.5V178.25Z" fill="#9AA4B2"/>
<path id="Vector_27" d="M178.25 11.5H172.5V5.75V0H166.75V5.75V11.5V17.25H172.5V23H178.25V28.75H184V23V17.25V11.5H178.25Z" fill="#9AA4B2"/>
</g>
<g id="Group_2">
<path id="Vector_28" d="M11.5 80.5V74.75V69V63.25H5.75V57.5H0V63.25V69V74.75V80.5H5.75H11.5Z" fill="#E3E8EF"/>
<path id="Vector_29" d="M5.75 115H11.5V120.75V126.5H17.25V120.75V115V109.25H11.5V103.5H5.75V97.75H0V103.5V109.25H5.75V115Z" fill="#E3E8EF"/>
<path id="Vector_30" d="M17.25 143.75V138H11.5H5.75V143.75H11.5V149.5H17.25V155.25H23V149.5H28.75V143.75H23H17.25Z" fill="#E3E8EF"/>
<path id="Vector_31" d="M34.5 40.25H40.25V34.5H34.5V28.75H28.75H23V34.5V40.25V46H28.75H34.5V40.25Z" fill="#E3E8EF"/>
<path id="Vector_32" d="M40.25 69H34.5V74.75V80.5H40.25V86.25H46V92V97.75H51.75V92V86.25H57.5V80.5H51.75V74.75H46H40.25V69Z" fill="#E3E8EF"/>
<path id="Vector_33" d="M46 149.5H40.25H34.5V155.25V161H40.25H46V166.75H40.25V172.5H46H51.75V166.75V161V155.25H57.5V149.5H51.75H46Z" fill="#E3E8EF"/>
<path id="Vector_34" d="M69 46H63.25V51.75H69V46Z" fill="#E3E8EF"/>
<path id="Vector_35" d="M63.25 138H69V132.25H74.75V126.5V120.75V115H69H63.25H57.5H51.75V120.75H57.5V126.5H63.25V132.25V138Z" fill="#E3E8EF"/>
<path id="Vector_36" d="M74.75 51.75V57.5V63.25H80.5V57.5H86.25V51.75V46V40.25H80.5H74.75H69V46H74.75V51.75Z" fill="#E3E8EF"/>
<path id="Vector_37" d="M74.75 155.25H69V161H74.75H80.5V155.25H74.75Z" fill="#E3E8EF"/>
<path id="Vector_38" d="M86.25 92V86.25H80.5V80.5H74.75H69V86.25H74.75V92H80.5V97.75V103.5H86.25V109.25H92V103.5V97.75H86.25V92Z" fill="#E3E8EF"/>
<path id="Vector_39" d="M86.25 161H80.5V166.75V172.5V178.25V184H86.25H92V178.25V172.5V166.75H86.25V161Z" fill="#E3E8EF"/>
<path id="Vector_40" d="M97.75 23H103.5V17.25H97.75H92V11.5H86.25H80.5V17.25H74.75V23H80.5H86.25V28.75V34.5H92V28.75H97.75V23Z" fill="#E3E8EF"/>
<path id="Vector_41" d="M97.75 34.5V40.25H103.5H109.25H115V46V51.75H120.75H126.5V46V40.25V34.5H120.75H115H109.25H103.5H97.75Z" fill="#E3E8EF"/>
<path id="Vector_42" d="M115 138H120.75V143.75V149.5H115V155.25H120.75V161H126.5V155.25V149.5V143.75V138V132.25V126.5H120.75H115H109.25V120.75H103.5H97.75V126.5H103.5V132.25H109.25H115V138Z" fill="#E3E8EF"/>
<path id="Vector_43" d="M126.5 69H132.25H138H143.75V74.75V80.5H149.5V74.75V69V63.25H143.75H138H132.25H126.5V69Z" fill="#E3E8EF"/>
<path id="Vector_44" d="M143.75 11.5V17.25H149.5V11.5H155.25V5.75V0H149.5H143.75H138V5.75H143.75V11.5Z" fill="#E3E8EF"/>
<path id="Vector_45" d="M143.75 103.5H149.5H155.25V97.75V92V86.25H149.5H143.75H138H132.25H126.5V92H132.25H138H143.75V97.75V103.5Z" fill="#E3E8EF"/>
<path id="Vector_46" d="M149.5 172.5H143.75H138V166.75H132.25H126.5H120.75H115V172.5H120.75H126.5V178.25H132.25H138V184H143.75H149.5H155.25V178.25H149.5V172.5Z" fill="#E3E8EF"/>
<path id="Vector_47" d="M161 172.5H155.25V178.25H161V172.5Z" fill="#E3E8EF"/>
<path id="Vector_48" d="M172.5 57.5V63.25H178.25V69H184V63.25V57.5H178.25H172.5Z" fill="#E3E8EF"/>
<path id="Vector_49" d="M172.5 97.75V103.5H178.25H184V97.75H178.25H172.5Z" fill="#E3E8EF"/>
<path id="Vector_50" d="M178.25 138H172.5H166.75H161V132.25H155.25H149.5V138H155.25V143.75H161H166.75H172.5V149.5H166.75V155.25H161V161H166.75H172.5V155.25H178.25H184V149.5V143.75H178.25V138Z" fill="#E3E8EF"/>
<path id="Vector_51" d="M178.25 34.5V28.75H172.5V34.5H166.75H161H155.25V40.25H161H166.75H172.5V46H178.25V40.25H184V34.5H178.25Z" fill="#E3E8EF"/>
</g>
<g id="Group_3">
<path id="Vector_52" d="M5.75 51.75H0V57.5H5.75V51.75Z" fill="#697586"/>
<path id="Vector_53" d="M11.5 34.5V28.75H5.75H0V34.5H5.75H11.5Z" fill="#697586"/>
<path id="Vector_54" d="M11.5 57.5H5.75V63.25H11.5V57.5Z" fill="#697586"/>
<path id="Vector_55" d="M51.75 161V166.75V172.5H46H40.25H34.5H28.75V178.25V184H34.5V178.25H40.25H46H51.75V184H57.5H63.25V178.25H57.5V172.5V166.75V161V155.25H51.75V161Z" fill="#697586"/>
<path id="Vector_56" d="M86.25 57.5H80.5V63.25H86.25V57.5Z" fill="#697586"/>
<path id="Vector_57" d="M86.25 5.75H80.5H74.75V11.5V17.25H80.5V11.5H86.25H92V5.75H86.25Z" fill="#697586"/>
<path id="Vector_58" d="M92 51.75V46V40.25H86.25V46V51.75V57.5H92V51.75Z" fill="#697586"/>
<path id="Vector_59" d="M92 161H86.25V166.75H92V161Z" fill="#697586"/>
<path id="Vector_60" d="M103.5 5.75V0H97.75H92V5.75H97.75V11.5H92V17.25H97.75H103.5V11.5V5.75Z" fill="#697586"/>
<path id="Vector_61" d="M115 161H109.25H103.5V166.75H97.75H92V172.5V178.25V184H97.75V178.25H103.5V172.5H109.25V166.75H115H120.75H126.5V161H120.75H115Z" fill="#697586"/>
<path id="Vector_62" d="M126.5 86.25H120.75V92H126.5V86.25Z" fill="#697586"/>
<path id="Vector_63" d="M126.5 138V143.75V149.5V155.25V161H132.25H138V166.75V172.5H143.75H149.5V178.25H155.25V172.5H161V178.25H155.25V184H161H166.75V178.25H172.5V172.5H178.25V166.75H184V161V155.25H178.25H172.5V161H166.75V166.75H161H155.25V161H149.5H143.75V155.25H138H132.25V149.5V143.75V138V132.25H126.5V138Z" fill="#697586"/>
<path id="Vector_64" d="M138 86.25V80.5H132.25H126.5V86.25H132.25H138Z" fill="#697586"/>
<path id="Vector_65" d="M155.25 97.75V103.5H149.5V115H143.75V120.75H120.75V115H115V103.5H120.75V92H115V97.75H109.25V115H97.75V86.25H92V80.5H86.25V74.75H80.5V63.25H74.75V69H69V74.75H51.75V80.5H57.5V86.25H63.25V80.5H80.5V86.25H86.25V97.75H92V109.25H86.25V120.75H80.5V109.25H51.75V103.5H57.5V86.25H51.75V97.75H46V109.25H23V103.5H17.25V97.75H11.5V86.25H17.25V74.75H23V69H28.75V63.25H34.5V69H40.25V74.75H51.75V69H46V63.25H40.25V51.75H46V40.25H80.5V34.5H63.25V23H69V11.5H63.25V0H57.5V34.5H46V28.75H40.25V23H23V17.25H28.75V5.75H34.5V0H23V11.5H17.25V0H11.5V17.25H17.25V28.75H34.5V34.5H40.25V40.25H34.5V46H28.75V57.5H23V63.25H11.5V80.5H5.75V92H0V97.75H5.75V103.5H11.5V109.25H17.25V126.5H11.5V132.25H0V155.25H5.75V138H17.25V143.75H28.75V149.5H23V155.25H17.25V161H0V166.75H11.5V184H17.25V166.75H23V161H28.75V155.25H34.5V149.5H57.5V155.25H80.5V161H86.25V149.5H80.5V138H86.25V126.5H97.75V120.75H109.25V126.5H132.25V132.25H138V126.5H155.25V132.25H161V120.75H155.25V109.25H161V97.75H184V92H161V86.25H155.25V97.75ZM74.75 149.5H63.25V143.75H34.5V138H23V115H74.75V132.25H69V143.75H74.75V149.5Z" fill="#697586"/>
<path id="Vector_66" d="M166.75 138H172.5H178.25V143.75H184V138V132.25H178.25H172.5H166.75H161V138H166.75Z" fill="#697586"/>
<path id="Vector_67" d="M172.5 23V17.25H166.75V11.5V5.75V0H161H155.25V5.75V11.5H149.5V17.25H143.75H138V23H132.25H126.5H120.75H115H109.25V17.25H103.5V23V28.75H97.75H92V34.5V40.25H97.75V34.5H103.5H109.25H115H120.75H126.5V40.25V46V51.75H120.75H115H109.25V57.5H103.5V63.25H97.75V69V74.75V80.5V86.25H103.5H109.25H115H120.75V80.5H115H109.25H103.5V74.75V69H109.25V63.25H115V57.5H120.75H126.5H132.25V63.25H138H143.75H149.5V69V74.75V80.5H143.75V86.25H149.5H155.25V80.5V74.75V69H161V63.25H166.75V57.5H172.5H178.25H184V51.75V46V40.25H178.25V46H172.5H166.75V51.75H161V57.5H155.25H149.5H143.75H138V51.75H132.25V46V40.25V34.5H138V28.75H143.75V23H149.5H155.25V17.25H161V23H166.75V28.75H172.5H178.25V23H172.5Z" fill="#697586"/>
<path id="Vector_68" d="M184 28.75H178.25V34.5H184V28.75Z" fill="#697586"/>
</g>
<g id="Group_4">
<path id="Vector_69" d="M5.75 80.5H0V86.25H5.75V80.5Z" fill="#CDD5DF"/>
<path id="Vector_70" d="M0 166.75V172.5V178.25V184H5.75H11.5V178.25V172.5V166.75H5.75H0Z" fill="#CDD5DF"/>
<path id="Vector_71" d="M11.5 17.25V11.5V5.75V0H5.75H0V5.75V11.5V17.25H5.75H11.5Z" fill="#CDD5DF"/>
<path id="Vector_72" d="M5.75 126.5H11.5V120.75V115H5.75V109.25H0V115V120.75H5.75V126.5Z" fill="#CDD5DF"/>
<path id="Vector_73" d="M17.25 17.25H11.5V23H17.25V17.25Z" fill="#CDD5DF"/>
<path id="Vector_74" d="M17.25 155.25V149.5H11.5V143.75H5.75V149.5V155.25H0V161H5.75H11.5H17.25V155.25Z" fill="#CDD5DF"/>
<path id="Vector_75" d="M23 5.75V0H17.25V5.75V11.5H23V5.75Z" fill="#CDD5DF"/>
<path id="Vector_76" d="M23 40.25V34.5H17.25V40.25H11.5V46V51.75H17.25H23H28.75V46H23V40.25Z" fill="#CDD5DF"/>
<path id="Vector_77" d="M28.75 92H23V97.75H28.75V103.5H34.5H40.25V97.75H46V92V86.25H40.25V80.5H34.5V86.25H28.75V92Z" fill="#CDD5DF"/>
<path id="Vector_78" d="M34.5 161V155.25H28.75V161H23V166.75H17.25V172.5V178.25V184H23H28.75V178.25V172.5H34.5H40.25V166.75H46V161H40.25H34.5Z" fill="#CDD5DF"/>
<path id="Vector_79" d="M40.25 23H46H51.75V28.75H57.5V23V17.25V11.5V5.75V0H51.75H46V5.75H40.25V11.5H34.5V17.25H40.25V23Z" fill="#CDD5DF"/>
<path id="Vector_80" d="M57.5 46V51.75H51.75V57.5H57.5V63.25H63.25H69H74.75V57.5V51.75V46H69V51.75H63.25V46H57.5Z" fill="#CDD5DF"/>
<path id="Vector_81" d="M63.25 132.25V126.5H57.5V120.75H51.75H46H40.25H34.5V126.5V132.25H40.25H46V138H51.75H57.5H63.25V132.25Z" fill="#CDD5DF"/>
<path id="Vector_82" d="M63.25 143.75V149.5H69H74.75V143.75H69H63.25Z" fill="#CDD5DF"/>
<path id="Vector_83" d="M69 161H63.25V166.75V172.5H69V178.25H74.75V184H80.5V178.25V172.5V166.75V161H74.75H69Z" fill="#CDD5DF"/>
<path id="Vector_84" d="M80.5 103.5V97.75V92H74.75V86.25H69V92H63.25V97.75H69H74.75V103.5H80.5Z" fill="#CDD5DF"/>
<path id="Vector_85" d="M80.5 115V120.75H86.25V115V109.25H80.5V115Z" fill="#CDD5DF"/>
<path id="Vector_86" d="M92 34.5H86.25V28.75V23H80.5H74.75V17.25H69V23H63.25V28.75V34.5H69H74.75H80.5V40.25H86.25H92V34.5Z" fill="#CDD5DF"/>
<path id="Vector_87" d="M97.75 5.75H92V11.5H97.75V5.75Z" fill="#CDD5DF"/>
<path id="Vector_88" d="M103.5 23H97.75V28.75H103.5V23Z" fill="#CDD5DF"/>
<path id="Vector_89" d="M103.5 46H97.75V51.75V57.5V63.25H103.5V57.5H109.25V51.75H115V46V40.25H109.25H103.5V46Z" fill="#CDD5DF"/>
<path id="Vector_90" d="M109.25 86.25V92H103.5V97.75V103.5V109.25H109.25V103.5V97.75H115V92H120.75V86.25H115H109.25Z" fill="#CDD5DF"/>
<path id="Vector_91" d="M115 149.5H120.75V143.75V138H115V132.25H109.25H103.5V126.5H97.75H92V132.25V138V143.75H97.75V149.5H103.5V155.25H109.25H115V149.5Z" fill="#CDD5DF"/>
<path id="Vector_92" d="M120.75 11.5H126.5H132.25H138H143.75V5.75H138V0H132.25H126.5H120.75H115V5.75H120.75V11.5Z" fill="#CDD5DF"/>
<path id="Vector_93" d="M132.25 126.5H126.5V132.25H132.25V126.5Z" fill="#CDD5DF"/>
<path id="Vector_94" d="M126.5 178.25V172.5H120.75H115V178.25V184H120.75H126.5H132.25H138V178.25H132.25H126.5Z" fill="#CDD5DF"/>
<path id="Vector_95" d="M138 74.75H143.75V69H138H132.25H126.5V63.25H120.75V69H115V74.75H120.75H126.5H132.25H138Z" fill="#CDD5DF"/>
<path id="Vector_96" d="M143.75 109.25H149.5V103.5H143.75V97.75V92H138H132.25V97.75V103.5H138V109.25H132.25V115H138H143.75V109.25Z" fill="#CDD5DF"/>
<path id="Vector_97" d="M149.5 23H143.75V28.75H149.5V23Z" fill="#CDD5DF"/>
<path id="Vector_98" d="M149.5 46V51.75H155.25H161H166.75V46H172.5V40.25H166.75H161H155.25H149.5V46Z" fill="#CDD5DF"/>
<path id="Vector_99" d="M161 143.75H155.25V138H149.5H143.75V143.75V149.5H149.5V155.25H155.25H161H166.75V149.5H172.5V143.75H166.75H161Z" fill="#CDD5DF"/>
<path id="Vector_100" d="M178.25 63.25H172.5V69H166.75V74.75V80.5H172.5V86.25H178.25H184V80.5V74.75V69H178.25V63.25Z" fill="#CDD5DF"/>
<path id="Vector_101" d="M172.5 103.5V97.75H166.75V103.5V109.25V115H172.5V120.75H178.25H184V115V109.25V103.5H178.25H172.5Z" fill="#CDD5DF"/>
<path id="Vector_102" d="M178.25 0H172.5V5.75V11.5H178.25H184V5.75V0H178.25Z" fill="#CDD5DF"/>
<path id="Vector_103" d="M178.25 172.5V178.25V184H184V178.25V172.5V166.75H178.25V172.5Z" fill="#CDD5DF"/>
</g>
</g>
</g>
</g>
<defs>
<clipPath id="clip0_8_156203">
<rect width="184" height="184" rx="52" fill="white"/>
</clipPath>
</defs>
</svg>
