<svg width="48" height="48" viewBox="0 0 48 48" fill="none" xmlns="http://www.w3.org/2000/svg">
<g id="Rating icon" clip-path="url(#clip0_1_5952)">
<g id="Group">
<path id="Vector" d="M10 2V22H12V26H14V28H18V30H30V28H34V26H36V22H38V2H10Z" fill="#FAC515"/>
<path id="Vector_2" d="M36 44L12 44L12 42L36 42L36 44ZM38 46L36 46L36 44L38 44L38 46ZM12 46L10 46L10 44L12 44L12 46ZM38 48L10 48L10 46L38 46L38 48Z" fill="#A15C07"/>
<path id="Vector_3" d="M20 32H22V38H20V32Z" fill="#CA8504"/>
<path id="Vector_4" d="M26 32H28V38H26V32Z" fill="#A15C07"/>
<path id="Vector_5" d="M18 38H20V40H18V38ZM16 40H18V42H16V40Z" fill="#CA8504"/>
<path id="Vector_6" d="M30 40H32V42H30V40ZM28 38H30V40H28V38ZM18 30H30V32H18V30Z" fill="#A15C07"/>
<path id="Vector_7" d="M14 28H18V30H14V28Z" fill="#CA8504"/>
<path id="Vector_8" d="M30 28H34V30H30V28Z" fill="#A15C07"/>
<path id="Vector_9" d="M12 26H14V28H12V26ZM10 22H12V26H10V22Z" fill="#CA8504"/>
<path id="Vector_10" d="M34 26H36V28H34V26ZM36 22H38V26H36V22Z" fill="#A15C07"/>
<path id="Vector_11" d="M8 2H10V22H8V2ZM38 2H40V22H38V2ZM10 0H38V2H10V0ZM42 4H46V6H42V4ZM46 6H48V20H46V6ZM42 8H44V10H42V8Z" fill="#CA8504"/>
<path id="Vector_12" d="M40 18H42V20H40V18ZM44 20H46V22H44V20ZM42 22H44V24H42V22ZM38 24H42V26H38V24Z" fill="#A15C07"/>
<path id="Vector_13" d="M6 6H2V4H6V6ZM2 20H0V6H2V20ZM6 10H4V8H6V10Z" fill="#CA8504"/>
<path id="Vector_14" d="M6 18H4V10H6V18ZM8 20H6V18H8V20Z" fill="#A15C07"/>
<path id="Vector_15" d="M4 22H2V20H4V22ZM6 24H4V22H6V24ZM8 26H6V24H8V26Z" fill="#CA8504"/>
<path id="Vector_16" d="M36 44H12V46H36V44Z" fill="#FAC515"/>
<path id="Vector_17" d="M8 22V20H6V18H4V8H8V6H2V20H4V22H6V24H10V22H8ZM40 22V20H42V18H44V8H40V6H46V20H44V22H42V24H38V22H40ZM28 40V38H26V32H22V38H20V40H18V42H30V40H28Z" fill="#FAC515"/>
<path id="Vector_18" d="M12 2H16V4H12V2ZM10 4H12V22H10V4ZM12 22H14V26H12V22ZM14 26H16V28H14V26Z" fill="#FEF7C3"/>
<path id="Vector_19" d="M40 22H42V24H40V22ZM42 20H44V22H42V20ZM44 18H46V20H44V18Z" fill="#EAAA08"/>
<path id="Vector_20" d="M4 6H6V8H4V6ZM2 8H4V10H2V8ZM18 40H20V42H18V40ZM20 38H22V40H20V38Z" fill="#FEF7C3"/>
<path id="Vector_21" d="M22 32H26V34H22V32ZM26 38H28V40H26V38ZM28 40H30V42H28V40ZM28 28H30V30H28V28ZM30 26H34V28H30V26ZM34 22H36V26H34V22ZM36 18H38V22H36V18Z" fill="#EAAA08"/>
<path id="Vector_22" d="M42 6H44V8H42V6ZM44 8H46V10H44V8Z" fill="#FEF7C3"/>
<path id="Vector_23" d="M6 20H8V22H6V20ZM8 22H10V24H8V22Z" fill="#EAAA08"/>
<path id="Vector_24" d="M42 10H44V18H42V10ZM6 8H8V10H6V8ZM6 4H8V6H6V4ZM40 4H42V6H40V4ZM40 8H42V10H40V8Z" fill="#A15C07"/>
</g>
</g>
<defs>
<clipPath id="clip0_1_5952">
<rect width="48" height="48" fill="white"/>
</clipPath>
</defs>
</svg>
