<svg width="228" height="80" viewBox="0 0 228 80" fill="none" xmlns="http://www.w3.org/2000/svg">
<rect y="16" width="4" height="56" fill="#697586"/>
<rect x="8" y="8" width="212" height="4" fill="#697586"/>
<rect width="220" height="64" transform="translate(4 12)" fill="#697586"/>
<rect x="8" y="76" width="212" height="4" fill="#697586"/>
<rect x="224" y="16" width="4" height="56" fill="#697586"/>
<rect x="4" y="16" width="4" height="56" fill="black"/>
<rect x="8" y="12" width="212" height="4" fill="black"/>
<rect width="212" height="56" transform="translate(8 16)" fill="#6941C6"/>
<rect x="8" y="68" width="4" height="4" fill="black"/>
<rect x="216" y="68" width="4" height="4" fill="black"/>
<rect x="8" y="72" width="212" height="4" fill="black"/>
<rect x="220" y="16" width="4" height="56" fill="black"/>
<rect x="8" y="4" width="4" height="56" fill="black"/>
<rect x="12" width="204" height="4" fill="black"/>
<rect width="204" height="56" transform="translate(12 4)" fill="#7F56D9"/>
<path d="M42 41V38H39V35H36V26H39V23H42V20H54V23H57V26H51V23H45V26H42V35H45V38H51V35H57V38H54V41H42ZM69 41V29H63V26H81V29H75V41H69ZM87 41V38H84V35H87V32H99V29H87V26H102V29H105V41H87ZM90 38H99V35H90V38ZM129 29V38H126V41H114V44H108V26H114V29H117V32H114V38H123V29H117V26H126V29H129ZM141 41V29H135V26H153V29H147V41H141Z" fill="white"/>
<path fill-rule="evenodd" clip-rule="evenodd" d="M178 40H176V24H178V26H180V29H182V31H184V33H182V35H180V38H178V40Z" fill="white"/>
<rect x="12" y="60" width="204" height="4" fill="black"/>
<rect x="216" y="4" width="4" height="56" fill="black"/>
</svg>
