<svg width="64" height="64" viewBox="0 0 64 64" fill="none" xmlns="http://www.w3.org/2000/svg">
<path d="M64 64L32 48L0 64V0H64V64Z" fill="#1A40FF"/>
<path d="M51.9992 48.12C51.0726 48.12 50.3726 47.93 49.8992 47.55C49.4259 47.17 49.1759 46.67 49.1492 46.05H50.6492C50.6759 46.1833 50.7159 46.3 50.7692 46.4C50.8226 46.5 50.9026 46.5833 51.0092 46.65C51.1159 46.7167 51.2492 46.77 51.4092 46.81C51.5692 46.8433 51.7659 46.86 51.9992 46.86C52.4792 46.86 52.8226 46.7967 53.0292 46.67C53.2426 46.5367 53.3492 46.35 53.3492 46.11C53.3492 45.8167 53.2092 45.5967 52.9292 45.45C52.6559 45.2967 52.2159 45.16 51.6092 45.04C51.2492 44.9733 50.9292 44.8867 50.6492 44.78C50.3692 44.6667 50.1326 44.5267 49.9392 44.36C49.7459 44.1867 49.5992 43.98 49.4992 43.74C49.3992 43.5 49.3492 43.2133 49.3492 42.88C49.3492 42.58 49.4092 42.3067 49.5292 42.06C49.6559 41.8133 49.8326 41.6033 50.0592 41.43C50.2926 41.25 50.5726 41.1133 50.8992 41.02C51.2259 40.9267 51.5926 40.88 51.9992 40.88C52.4392 40.88 52.8192 40.9267 53.1392 41.02C53.4592 41.1133 53.7259 41.2467 53.9392 41.42C54.1592 41.5933 54.3259 41.8 54.4392 42.04C54.5526 42.28 54.6226 42.55 54.6492 42.85H53.1492C53.1026 42.61 52.9959 42.4333 52.8292 42.32C52.6626 42.2 52.3859 42.14 51.9992 42.14C51.6059 42.14 51.3159 42.2033 51.1292 42.33C50.9426 42.4567 50.8492 42.6267 50.8492 42.84C50.8492 43.0933 50.9759 43.2967 51.2292 43.45C51.4892 43.5967 51.8959 43.7233 52.4492 43.83C52.8292 43.9033 53.1659 43.9933 53.4592 44.1C53.7592 44.2067 54.0092 44.3433 54.2092 44.51C54.4159 44.6767 54.5726 44.8833 54.6792 45.13C54.7926 45.37 54.8492 45.66 54.8492 46C54.8492 46.6467 54.5992 47.1633 54.0992 47.55C53.6059 47.93 52.9059 48.12 51.9992 48.12Z" fill="white"/>
<path d="M11.2496 41H12.7496V48H11.2496V41Z" fill="white"/>
<path d="M7.83906 9.52H10.8311L12.8471 13.728L14.8631 9.52H17.7591V18H15.4231V12.8L13.5991 16.4H11.9991L10.1751 12.8V18H7.83906V9.52ZM23.4347 18.208C22.816 18.208 22.2347 18.1227 21.6907 17.952C21.1574 17.7707 20.6934 17.4987 20.2987 17.136C19.904 16.7733 19.5947 16.32 19.3707 15.776C19.1467 15.2213 19.0347 14.576 19.0347 13.84V13.52C19.0347 12.816 19.1414 12.2027 19.3547 11.68C19.5787 11.1573 19.8774 10.72 20.2507 10.368C20.6347 10.016 21.0827 9.75467 21.5947 9.584C22.1174 9.40267 22.6774 9.312 23.2747 9.312C24.672 9.312 25.728 9.67467 26.4427 10.4C27.1574 11.1147 27.5147 12.1547 27.5147 13.52V14.4H21.5627C21.5734 14.7307 21.632 15.0133 21.7387 15.248C21.8454 15.472 21.984 15.6587 22.1547 15.808C22.3254 15.9573 22.5174 16.0693 22.7307 16.144C22.9547 16.208 23.1894 16.24 23.4347 16.24C23.904 16.24 24.272 16.1707 24.5387 16.032C24.816 15.8827 24.9974 15.6853 25.0827 15.44H27.3547C27.184 16.368 26.7627 17.0613 26.0907 17.52C25.4187 17.9787 24.5334 18.208 23.4347 18.208ZM23.3547 11.264C23.1307 11.264 22.912 11.2907 22.6987 11.344C22.496 11.3973 22.3094 11.488 22.1387 11.616C21.9787 11.7333 21.8454 11.888 21.7387 12.08C21.6427 12.272 21.5894 12.5067 21.5787 12.784H25.0987C25.0987 12.4853 25.0507 12.24 24.9547 12.048C24.8587 11.856 24.7307 11.7013 24.5707 11.584C24.4214 11.4667 24.24 11.3867 24.0267 11.344C23.8134 11.2907 23.5894 11.264 23.3547 11.264ZM28.1541 15.984H29.0501C29.2741 15.6533 29.4341 15.2 29.5301 14.624C29.6261 14.0373 29.6741 13.2427 29.6741 12.24V9.52H36.6341V15.984H37.5941V20H35.5141V18H30.2341V20H28.1541V15.984ZM34.1701 15.984V11.536H31.9461V12.56C31.9461 13.36 31.9034 14.0373 31.8181 14.592C31.7434 15.1467 31.6261 15.6107 31.4661 15.984H34.1701ZM38.7141 9.52H41.1141V14.64L44.7141 9.52H46.8741V18H44.4741V12.88L40.8741 18H38.7141V9.52ZM51.1197 18.208C50.661 18.208 50.2504 18.1387 49.8877 18C49.5357 17.8613 49.237 17.6747 48.9917 17.44C48.7464 17.1947 48.5597 16.912 48.4317 16.592C48.3037 16.2613 48.2397 15.904 48.2397 15.52C48.2397 14.6773 48.4957 14.032 49.0077 13.584C49.5304 13.136 50.3144 12.912 51.3597 12.912H53.7757V12.56C53.7757 12.048 53.653 11.696 53.4077 11.504C53.1624 11.3013 52.8264 11.2 52.3997 11.2C51.9944 11.2 51.6957 11.264 51.5037 11.392C51.3117 11.52 51.205 11.7227 51.1837 12H48.7197C48.741 11.616 48.837 11.264 49.0077 10.944C49.1784 10.6133 49.4184 10.3307 49.7277 10.096C50.0477 9.85067 50.437 9.65867 50.8957 9.52C51.3544 9.38133 51.8824 9.312 52.4797 9.312C53.0344 9.312 53.541 9.376 53.9997 9.504C54.469 9.62133 54.869 9.81867 55.1997 10.096C55.5304 10.3627 55.7864 10.7147 55.9677 11.152C56.149 11.5787 56.2397 12.1013 56.2397 12.72V15.84C56.2397 16.288 56.2504 16.6827 56.2717 17.024C56.293 17.3547 56.325 17.68 56.3677 18H54.0317C54.0104 17.8187 53.989 17.6587 53.9677 17.52C53.957 17.3813 53.9517 17.2107 53.9517 17.008C53.6957 17.3493 53.3384 17.6373 52.8797 17.872C52.4317 18.096 51.845 18.208 51.1197 18.208ZM51.9197 16.48C52.4424 16.48 52.8797 16.3307 53.2317 16.032C53.5944 15.7333 53.7757 15.3227 53.7757 14.8V14.448H51.8397C51.477 14.448 51.205 14.544 51.0237 14.736C50.853 14.928 50.7677 15.152 50.7677 15.408C50.7677 15.7173 50.853 15.9733 51.0237 16.176C51.205 16.3787 51.5037 16.48 51.9197 16.48Z" fill="white"/>
</svg>
