<svg width="464" height="200" viewBox="0 0 464 200" fill="none" xmlns="http://www.w3.org/2000/svg">
<path d="M172 96V88H156V96H124V64H132V48H140V16H196V64H204V96H172Z" fill="black"/>
<path d="M204 88V80H196V56H204V32H260V40H268V88H204Z" fill="black"/>
<path d="M276 88V56H260V32H324V56H308V88H276Z" fill="black"/>
<path d="M316 88V80H308V56H316V32H372V40H380V88H316Z" fill="black"/>
<path d="M132 84V68H140V52H148V20H188V68H196V84H180V76H148V84H132ZM156 68H172V28H156V68Z" fill="#9E77ED"/>
<path d="M212 76V68H204V60H212V52H244V44H212V36H252V44H260V76H212ZM220 68H244V60H220V68Z" fill="#9E77ED"/>
<path d="M284 76V44H268V36H316V44H300V76H284Z" fill="#9E77ED"/>
<path d="M324 76V68H316V60H324V52H356V44H324V36H364V44H372V76H324ZM332 68H356V60H332V68Z" fill="#9E77ED"/>
<path d="M64 180V172H56V164H48V148H40V100H48V84H56V76H64V68H120V76H128V84H136V100H144V148H152V172H144V180H64Z" fill="black"/>
<path d="M160 180V172H152V132H144V108H152V100H176V108H184V100H208V108H216V148H232V172H224V180H160Z" fill="black"/>
<path d="M248 180V172H224V108H232V100H272V108H280V116H288V140H272V148H288V172H280V180H248Z" fill="black"/>
<path d="M320 180V172H312V180H280V156H288V108H296V100H328V84H352V92H360V124H352V172H344V180H320Z" fill="black"/>
<path d="M368 180V172H360V124H352V100H360V84H368V76H392V100H408V124H392V148H408V172H400V180H368Z" fill="black"/>
<path d="M128 168H120V160H112V168H72V160H64V152H56V136H48V104H56V88H64V80H72V72H112V80H120V88H128V104H136V136H128V160H136V168H128ZM72 136V104H80V88H72V96H64V112H56V128H64V136H72ZM88 152H96V96H88V120H80V152H88ZM112 152V144H120V128H128V112H120V104H112V88H104V152H112ZM136 160V152H144V160H136Z" fill="white"/>
<path d="M208 168H200V160H184V168H168V160H160V120H152V112H160V104H168V112H176V160H184V152H192V120H184V112H192V104H200V112H208V160H216V168H208ZM216 160V152H224V160H216Z" fill="white"/>
<path d="M264 168H256V160H248V152H240V144H232V112H240V104H264V112H272V120H280V128H264V136H256V128H264V120H256V112H248V136H256V152H264V160H272V168H264ZM232 160V152H240V160H232ZM272 160V152H280V160H272Z" fill="white"/>
<path d="M328 168V160H304V168H288V160H296V152H304V136H296V112H304V104H336V112H344V128H336V120H320V112H312V136H320V128H336V136H344V160H336V168H328ZM320 152H328V136H320V144H312V152H320ZM344 96H336V88H344V96ZM344 112V96H352V112H344Z" fill="white"/>
<path d="M384 168H376V160H368V112H360V104H368V88H376V80H384V104H400V112H384V160H392V168H384ZM392 160V152H400V160H392Z" fill="white"/>
<path d="M25.6 106.4H19.2V100H12.8V106.4H6.4V112.8H0V119.2H6.4V125.6H12.8V132H19.2V125.6H25.6V119.2H32V112.8H25.6V106.4Z" fill="black"/>
<path d="M19.2 112.8V106.4H12.8V112.8H6.40002V119.2H12.8V125.6H19.2V119.2H25.6V112.8H19.2Z" fill="#22CCEE"/>
<path d="M19.2 112.8H25.6V119.2H19.2V112.8Z" fill="#088AB2"/>
<path d="M19.2 119.2H12.8V125.6H19.2V119.2Z" fill="#088AB2"/>
<path d="M19.2 106.4H12.8V112.8H19.2V106.4Z" fill="#088AB2"/>
<path d="M369.6 6.4H363.2V0H356.8V6.4H350.4V12.8H344V19.2H350.4V25.6H356.8V32H363.2V25.6H369.6V19.2H376V12.8H369.6V6.4Z" fill="black"/>
<path d="M363.2 12.8V6.39999H356.8V12.8H350.4V19.2H356.8V25.6H363.2V19.2H369.6V12.8H363.2Z" fill="#FAC515"/>
<path d="M363.2 12.8H369.6V19.2H363.2V12.8Z" fill="#CA8504"/>
<path d="M363.2 19.2H356.8V25.6H363.2V19.2Z" fill="#CA8504"/>
<path d="M363.2 6.39999H356.8V12.8H363.2V6.39999Z" fill="#CA8504"/>
<path d="M70.6 174.4H64.2V168H57.8V174.4H51.4V180.8H45V187.2H51.4V193.6H57.8V200H64.2V193.6H70.6V187.2H77V180.8H70.6V174.4Z" fill="black"/>
<path d="M64.2 180.8V174.4H57.8V180.8H51.4V187.2H57.8V193.6H64.2V187.2H70.6V180.8H64.2Z" fill="#85E13A"/>
<path d="M64.2 180.8H70.6V187.2H64.2V180.8Z" fill="#4CA30D"/>
<path d="M64.2 187.2H57.8V193.6H64.2V187.2Z" fill="#4CA30D"/>
<path d="M64.2 174.4H57.8V180.8H64.2V174.4Z" fill="#4CA30D"/>
<path d="M425.6 62.4H419.2V56H412.8V62.4H406.4V68.8H400V75.2H406.4V81.6H412.8V88H419.2V81.6H425.6V75.2H432V68.8H425.6V62.4Z" fill="black"/>
<path d="M419.2 68.8V62.4H412.8V68.8H406.4V75.2H412.8V81.6H419.2V75.2H425.6V68.8H419.2Z" fill="#FD6F8E"/>
<path d="M419.2 68.8H425.6V75.2H419.2V68.8Z" fill="#E31B54"/>
<path d="M419.2 75.2H412.8V81.6H419.2V75.2Z" fill="#E31B54"/>
<path d="M419.2 62.4H412.8V68.8H419.2V62.4Z" fill="#E31B54"/>
<path d="M229.6 96.4H223.2V90H216.8V96.4H210.4V102.8H204V109.2H210.4V115.6H216.8V122H223.2V115.6H229.6V109.2H236V102.8H229.6V96.4Z" fill="black"/>
<path d="M223.2 102.8V96.4H216.8V102.8H210.4V109.2H216.8V115.6H223.2V109.2H229.6V102.8H223.2Z" fill="#2ED3B7"/>
<path d="M223.2 102.8H229.6V109.2H223.2V102.8Z" fill="#0E9384"/>
<path d="M223.2 109.2H216.8V115.6H223.2V109.2Z" fill="#0E9384"/>
<path d="M223.2 96.4H216.8V102.8H223.2V96.4Z" fill="#0E9384"/>
<path d="M323.6 171.4H317.2V165H310.8V171.4H304.4V177.8H298V184.2H304.4V190.6H310.8V197H317.2V190.6H323.6V184.2H330V177.8H323.6V171.4Z" fill="black"/>
<path d="M317.2 177.8V171.4H310.8V177.8H304.4V184.2H310.8V190.6H317.2V184.2H323.6V177.8H317.2Z" fill="#B692F6"/>
<path d="M317.2 177.8H323.6V184.2H317.2V177.8Z" fill="#7F56D9"/>
<path d="M317.2 184.2H310.8V190.6H317.2V184.2Z" fill="#7F56D9"/>
<path d="M317.2 171.4H310.8V177.8H317.2V171.4Z" fill="#7F56D9"/>
</svg>
