<svg width="80" height="16" viewBox="0 0 80 16" fill="none" xmlns="http://www.w3.org/2000/svg">
<g clip-path="url(#clip0_168_8825)">
<path fill-rule="evenodd" clip-rule="evenodd" d="M16 0H0V16H16V0ZM5.33333 7.11333L12 2.66667V13.3333L5.33333 8.88667V13.3333H4V2.66667H5.33333V7.11333ZM6.40666 8L10.6667 10.84V5.16L6.40666 8Z" fill="#2C2D2E"/>
</g>
<path d="M21.08 12H22.28L26.576 4.56H26.6V12H27.44V3.6H26.24L21.944 11.04H21.92V3.6H21.08V12ZM29.5395 12H30.3315V9.3H33.6675V12H34.4595V6H33.6675V8.58H30.3315V6H29.5395V12ZM35.7205 13.56H36.4885V12H41.1325V13.56H41.9005V11.28H41.1205V6H37.0405V7.8C37.0405 8.28 37.0285 8.696 37.0045 9.048C36.9885 9.392 36.9525 9.696 36.8965 9.96C36.8485 10.224 36.7805 10.46 36.6925 10.668C36.6125 10.876 36.5085 11.08 36.3805 11.28H35.7205V13.56ZM37.2685 11.28V11.256C37.3805 11.024 37.4685 10.796 37.5325 10.572C37.6045 10.348 37.6605 10.104 37.7005 9.84C37.7405 9.568 37.7685 9.268 37.7845 8.94C37.8005 8.612 37.8085 8.232 37.8085 7.8V6.72H40.3285V11.28H37.2685ZM43.2153 12H44.3193L47.3193 6.9H47.3433V12H48.1353V6H47.0313L44.0313 11.1H44.0073V6H43.2153V12ZM50.1763 12H50.9683V9.24H52.0483L54.0163 12H54.9763L52.6842 8.856L54.7363 6H53.8003L52.0483 8.52H50.9683V6H50.1763V12ZM57.7363 12.084C58.1683 12.084 58.5603 11.992 58.9123 11.808C59.2723 11.616 59.5723 11.34 59.8123 10.98H59.8363L59.9323 12H60.5563V8.04C60.5563 7.336 60.3683 6.808 59.9923 6.456C59.6243 6.096 59.0523 5.916 58.2763 5.916C57.9163 5.916 57.5963 5.96 57.3163 6.048C57.0363 6.136 56.8003 6.256 56.6083 6.408C56.4243 6.56 56.2803 6.736 56.1763 6.936C56.0723 7.136 56.0123 7.344 55.9963 7.56H56.8123C56.8443 7.296 56.9723 7.08 57.1963 6.912C57.4283 6.744 57.7883 6.66 58.2763 6.66C58.8043 6.66 59.1843 6.772 59.4163 6.996C59.6483 7.212 59.7643 7.56 59.7643 8.04V8.484H58.2163C57.7843 8.484 57.4123 8.528 57.1003 8.616C56.7963 8.704 56.5443 8.828 56.3443 8.988C56.1443 9.148 55.9963 9.344 55.9003 9.576C55.8043 9.8 55.7563 10.056 55.7563 10.344C55.7563 10.888 55.9203 11.316 56.2483 11.628C56.5763 11.932 57.0723 12.084 57.7363 12.084ZM57.7963 11.34C57.3723 11.34 57.0603 11.252 56.8603 11.076C56.6683 10.892 56.5723 10.648 56.5723 10.344C56.5723 9.984 56.7003 9.696 56.9563 9.48C57.2123 9.264 57.6523 9.156 58.2763 9.156H59.7643V9.48C59.7643 9.752 59.7163 10.004 59.6203 10.236C59.5243 10.46 59.3883 10.656 59.2123 10.824C59.0363 10.984 58.8283 11.112 58.5883 11.208C58.3483 11.296 58.0843 11.34 57.7963 11.34ZM63.5292 12H64.3212V6.72H66.3252V6H61.5252V6.72H63.5292V12ZM69.6359 12.084C70.0359 12.084 70.3959 12.02 70.7159 11.892C71.0439 11.764 71.3239 11.58 71.5559 11.34C71.7879 11.092 71.9639 10.788 72.0839 10.428C72.2119 10.068 72.2759 9.66 72.2759 9.204V8.796C72.2759 7.868 72.0359 7.156 71.5559 6.66C71.0839 6.164 70.4439 5.916 69.6359 5.916C69.2359 5.916 68.8719 5.98 68.5439 6.108C68.2239 6.236 67.9479 6.424 67.7159 6.672C67.4839 6.912 67.3039 7.212 67.1759 7.572C67.0559 7.932 66.9959 8.34 66.9959 8.796V9.204C66.9959 10.124 67.2359 10.836 67.7159 11.34C68.1959 11.836 68.8359 12.084 69.6359 12.084ZM69.6359 11.364C69.0919 11.364 68.6519 11.184 68.3159 10.824C67.9799 10.456 67.8119 9.916 67.8119 9.204V8.796C67.8119 8.076 67.9759 7.536 68.3039 7.176C68.6399 6.816 69.0839 6.636 69.6359 6.636C70.1799 6.636 70.6199 6.82 70.9559 7.188C71.2919 7.548 71.4599 8.084 71.4599 8.796V9.204C71.4599 9.924 71.2919 10.464 70.9559 10.824C70.6279 11.184 70.1879 11.364 69.6359 11.364ZM73.9536 14.4H74.7456V11.16H74.7696C74.9776 11.464 75.2416 11.696 75.5616 11.856C75.8896 12.008 76.2696 12.084 76.7016 12.084C77.0456 12.084 77.3656 12.02 77.6616 11.892C77.9576 11.764 78.2136 11.58 78.4296 11.34C78.6456 11.092 78.8136 10.792 78.9336 10.44C79.0536 10.08 79.1136 9.668 79.1136 9.204V8.796C79.1136 8.324 79.0536 7.912 78.9336 7.56C78.8136 7.2 78.6456 6.9 78.4296 6.66C78.2216 6.412 77.9696 6.228 77.6736 6.108C77.3776 5.98 77.0536 5.916 76.7016 5.916C76.2696 5.916 75.8936 5.996 75.5736 6.156C75.2536 6.308 74.9616 6.556 74.6976 6.9H74.6736L74.5776 6H73.9536V14.4ZM76.5216 11.364C76.0016 11.364 75.5736 11.184 75.2376 10.824C74.9096 10.456 74.7456 9.916 74.7456 9.204V8.796C74.7456 8.068 74.9096 7.528 75.2376 7.176C75.5656 6.816 75.9936 6.636 76.5216 6.636C77.0416 6.636 77.4656 6.82 77.7936 7.188C78.1296 7.548 78.2976 8.084 78.2976 8.796V9.204C78.2976 9.932 78.1336 10.476 77.8056 10.836C77.4776 11.188 77.0496 11.364 76.5216 11.364Z" fill="#2C2D2E"/>
<defs>
<clipPath id="clip0_168_8825">
<rect width="16" height="16" fill="white"/>
</clipPath>
</defs>
</svg>
